<?xml version="1.0" encoding="utf-8"?>
<!-- Generator: Adobe Illustrator 19.2.1, SVG Export Plug-In . SVG Version: 6.00 Build 0)  -->
<svg version="1.1" id="Layer_1" xmlns="http://www.w3.org/2000/svg" xmlns:xlink="http://www.w3.org/1999/xlink" x="0px" y="0px"
	 viewBox="0 0 19.8 20" style="enable-background:new 0 0 19.8 20;" xml:space="preserve">
<style type="text/css">
	.st0{fill:#FFFFFF;}
</style>
<g>
	<g>
		<g>
			<g>
				<path class="st0" d="M10,0C4.5,0,0,4.5,0,10s4.5,10,10,10s10-4.5,10-10S15.5,0,10,0z M10,17.9c-4.3,0-7.9-3.5-7.9-7.9
					c0-4.3,3.5-7.9,7.9-7.9c4.3,0,7.9,3.5,7.9,7.9C17.9,14.3,14.3,17.9,10,17.9z"/>
			</g>
		</g>
		<g>
			<g>
				<path class="st0" d="M6.4,6.9c0-0.4,0.3-0.8,0.7-0.8h1.5c0.4,0,0.7,0.4,0.7,0.8v6.3C9.3,13.6,9,14,8.6,14H7.1
					c-0.4,0-0.7-0.4-0.7-0.8V6.9z"/>
			</g>
			<g>
				<path class="st0" d="M10.8,6.9c0-0.4,0.3-0.8,0.7-0.8H13c0.4,0,0.7,0.4,0.7,0.8v6.3c0,0.4-0.3,0.8-0.7,0.8h-1.5
					c-0.4,0-0.7-0.4-0.7-0.8V6.9L10.8,6.9z"/>
			</g>
		</g>
	</g>
</g>
</svg>
