<?xml version="1.0" encoding="utf-8"?>
<!-- Generator: Adobe Illustrator 19.2.1, SVG Export Plug-In . SVG Version: 6.00 Build 0)  -->
<svg version="1.1" id="Layer_1" xmlns="http://www.w3.org/2000/svg" xmlns:xlink="http://www.w3.org/1999/xlink" x="0px" y="0px"
	 viewBox="0 0 19.8 20" style="enable-background:new 0 0 19.8 20;" xml:space="preserve">
<style type="text/css">
	.st0{fill:#FFFFFF;}
</style>
<g>
	<g>
		<g>
			<g>
				<path class="st0" d="M10,0C4.5,0,0,4.5,0,10s4.5,10,10,10s10-4.5,10-10S15.5,0,10,0z M10,17.9c-4.3,0-7.9-3.5-7.9-7.9
					c0-4.3,3.5-7.9,7.9-7.9c4.3,0,7.9,3.5,7.9,7.9C17.9,14.3,14.3,17.9,10,17.9z"/>
			</g>
		</g>
	</g>
</g>
<g>
	<g>
		<g>
			<path class="st0" d="M7.1,6.6v6.9c0,0.6,0.6,0.9,1.1,0.6l5.6-3.4c0.5-0.3,0.5-1,0-1.2L8.2,5.9C7.7,5.6,7.1,6,7.1,6.6z"/>
		</g>
	</g>
</g>
</svg>
