<?xml version="1.0" encoding="utf-8"?>
<!-- Generator: Adobe Illustrator 19.2.1, SVG Export Plug-In . SVG Version: 6.00 Build 0)  -->
<svg version="1.1" id="Layer_1" xmlns="http://www.w3.org/2000/svg" xmlns:xlink="http://www.w3.org/1999/xlink" x="0px" y="0px"
	 viewBox="0 0 275 44" style="enable-background:new 0 0 275 44;" xml:space="preserve">
<style type="text/css">
	.st0{fill:#FFFFFF;}
</style>
<g>
	<path class="st0" d="M215.5,29c0.5,0,0.9,0.2,1.2,0.5s0.5,0.8,0.5,1.2c0,0.5-0.2,0.9-0.5,1.2c-0.3,0.3-0.8,0.5-1.2,0.5
		c-0.5,0-0.9-0.2-1.2-0.5s-0.5-0.8-0.5-1.2c0-0.5,0.2-0.9,0.5-1.2C214.6,29.2,215,29,215.5,29"/>
	<path class="st0" d="M232.8,19.9l-1.5,1c-1.3-1.8-3.1-2.7-5.3-2.7c-1.8,0-3.3,0.6-4.5,1.8c-1.2,1.2-1.8,2.7-1.8,4.4
		c0,1.1,0.3,2.2,0.8,3.2s1.3,1.8,2.2,2.3c1,0.5,2,0.8,3.2,0.8c2.2,0,3.9-0.9,5.3-2.7l1.5,1c-0.7,1.1-1.7,2-2.8,2.6
		c-1.2,0.6-2.5,0.9-4.1,0.9c-2.3,0-4.3-0.8-5.8-2.3c-1.5-1.6-2.3-3.4-2.3-5.7c0-1.5,0.4-2.9,1.1-4.2c0.7-1.3,1.7-2.3,3-3
		s2.7-1.1,4.2-1.1c1,0,1.9,0.2,2.8,0.5c0.9,0.3,1.7,0.7,2.3,1.2C231.8,18.5,232.3,19.1,232.8,19.9"/>
	<path class="st0" d="M242.3,16.3c2.4,0,4.3,0.9,5.9,2.6c1.4,1.6,2.1,3.4,2.1,5.6s-0.8,4-2.3,5.7c-1.5,1.6-3.4,2.4-5.8,2.4
		c-2.4,0-4.3-0.8-5.8-2.4s-2.3-3.5-2.3-5.7c0-2.1,0.7-4,2.1-5.6C237.9,17.2,239.9,16.3,242.3,16.3 M242.3,18.2
		c-1.7,0-3.1,0.6-4.3,1.8c-1.2,1.2-1.8,2.7-1.8,4.4c0,1.1,0.3,2.2,0.8,3.1c0.5,1,1.3,1.7,2.2,2.2s1.9,0.8,3,0.8s2.1-0.3,3-0.8
		s1.7-1.3,2.2-2.2c0.5-1,0.8-2,0.8-3.1c0-1.7-0.6-3.2-1.8-4.4C245.3,18.8,243.9,18.2,242.3,18.2"/>
	<path class="st0" d="M251.9,16.7h1.9v2.7c0.6-1,1.3-1.7,2-2.2c0.9-0.6,1.9-0.9,3-0.9c0.7,0,1.4,0.1,2,0.4s1.1,0.7,1.5,1.2
		s0.7,1.2,1,2.1c0.6-1.2,1.4-2.1,2.3-2.8c0.9-0.6,1.9-0.9,3-0.9c1,0,1.9,0.3,2.6,0.8c0.8,0.5,1.3,1.3,1.7,2.3c0.4,1,0.6,2.4,0.6,4.3
		v8.4h-1.9v-8.4c0-1.7-0.1-2.8-0.3-3.4c-0.2-0.6-0.6-1.1-1.1-1.5s-1.2-0.6-1.9-0.6c-0.9,0-1.7,0.3-2.5,0.9c-0.7,0.6-1.3,1.3-1.6,2.3
		c-0.3,0.9-0.5,2.5-0.5,4.7v6h-1.9v-7.9c0-1.9-0.1-3.1-0.3-3.8c-0.2-0.7-0.6-1.2-1.1-1.6s-1.2-0.6-1.9-0.6c-0.9,0-1.7,0.3-2.4,0.8
		c-0.7,0.6-1.3,1.3-1.7,2.2c-0.4,0.9-0.5,2.4-0.5,4.3V32H252V16.7H251.9z"/>
	<polygon class="st0" points="58.6,18.6 52.7,10 48.4,10 48.4,32.2 53.8,32.2 53.8,21.2 57.1,26 57.1,26 58.6,28.2 60.7,25 
		63.3,21.2 63.3,32.2 68.7,32.2 68.7,10 64.4,10 	"/>
	<path class="st0" d="M81.3,24.4c0,4.3-5.8,5.2-5.8,0.1V15h-5.1v9.5c0,4.3,1.3,7.9,6.2,7.9c1.8,0,3.7-0.4,4.9-2v1.8h5.1V15h-5.3
		C81.3,15,81.3,24.4,81.3,24.4z"/>
	<rect x="88.6" y="10" class="st0" width="5.1" height="22.3"/>
	<path class="st0" d="M102.6,26.3v-6.8h3.6v-4.3h-3.6v-3.7l-5,0.4v3.3h-2.3v4.3h2.3v6.8c0,5.4,3.4,6.9,8.9,6l-0.2-4.1
		C104.8,28.5,102.6,28.4,102.6,26.3"/>
	<path class="st0" d="M108,11.6c0,3.8,6,3.8,6,0C114,7.7,108,7.7,108,11.6"/>
	<rect x="108.5" y="15" class="st0" width="5.1" height="17.2"/>
	<polygon class="st0" points="114.8,15 120.8,15 120.8,32.2 126.2,32.2 126.2,15 132.2,15 132.2,10 114.8,10 	"/>
	<path class="st0" d="M137.9,16.2l-0.2-1.1h-4.5v17.2h5v-9.5c0-3.1,3.2-3.8,5.3-3.1l0.1-4.7C141.4,14.4,139.5,14.6,137.9,16.2"/>
	<path class="st0" d="M157.1,16.8c-1.1-1.4-2.8-2.1-4.5-2.1c-5.6,0-8.3,3.9-8.3,8.6s2.8,9.1,8.3,9.1c1.7,0,3.3-0.5,4.5-1.9v1.7h5V15
		h-5V16.8z M153.2,27.6c-2.6,0-3.9-2.1-3.8-4.2c0-2.1,1.3-4.1,3.8-4.1c2.2,0,3.9,1.9,3.9,4.2C157.1,25.8,155.3,27.6,153.2,27.6"/>
	<path class="st0" d="M176.1,22.3h5c-1.2-10.5-17.3-10-17.3,1.3s16.1,11.7,17.3,1.3h-5c-1.1,4.1-7.5,3.7-7.5-1.3
		S175,18.2,176.1,22.3"/>
	<polygon class="st0" points="198.1,15.3 198.1,15 192.6,15 187.8,21.8 187.8,21.2 187.8,10 182.9,10 182.9,32.2 187.8,32.2 
		187.8,26 187.8,25.5 192.8,32.2 198.6,32.2 198.6,32 192.2,23.6 	"/>
	<path class="st0" d="M205.6,21.2c-0.7,0-2-0.1-2-1s1-1.2,1.7-1.2c1,0,2.3,0.1,2.4,1.4h4.7c0-4-3.2-5.9-6.8-5.9c-3.8,0-7,1.8-7,5.9
		c0,3.8,3.3,5,6.5,5.3c0.8,0.1,2.7-0.1,2.7,1.1c0,0.6-0.9,1.1-2.2,1c-1.1,0-2.3-0.5-2.3-1.6h-5c0.1,4.4,3.1,6.2,7.2,6.2
		c3.8,0,7.2-1.5,7.2-5.8C212.7,22.8,209.1,21.3,205.6,21.2"/>
	<path class="st0" d="M22.5,1C15.4,1,9.2,4.5,5.4,9.9h14.9c0,0,1.1,0.3,1.1,1.5s-1.1,1.5-1.1,1.5H3.6c-0.3,0.6-0.6,1.3-0.8,1.9H29
		c0,0,1.1,0.3,1.1,1.5S29,17.8,29,17.8H8.3H1.9c-0.1,0.7-0.2,1.3-0.3,2h37.8c0,0,1.1,0.3,1.1,1.5s-1.1,1.5-1.1,1.5H18.7H1.6
		c0,0.7,0.1,1.3,0.2,2h34.7c0,0,1.1,0.3,1.1,1.5s-1.1,1.5-1.1,1.5H15.8H2.4c0.2,0.7,0.4,1.3,0.7,2h22.5c0,0,1.1,0.3,1.1,1.5
		s-1.1,1.5-1.1,1.5H4.9H4.6C8.3,39,15,43,22.5,43c11.6,0,21-9.4,21-21S34.1,1,22.5,1"/>
</g>
</svg>
